<?xml version="1.0" encoding="UTF-8"?><svg id="Layer_1" xmlns="http://www.w3.org/2000/svg" viewBox="0 0 970.48 1534.55"><defs><style>.cls-1{fill:#da195a;}.cls-1,.cls-2{fill-rule:evenodd;}.cls-2{fill:#027800;}</style></defs><path class="cls-2" d="M716.49,283.32c-35.03-30.89-73.52-57.81-113.91-80.86-24.08,5.93-48.42,13.18-72.65,21.78v-.6l43.11-17.2-57.51-44.21c-1.69-1.52-3.48-2.89-5.39-4.13-66.47-50.52-142.24-88.43-218.34-114.39C205.47,14.29,118.23,0,43.33,0H0v659.53c0,54,12.02,105.47,33.52,151.82,22.28,48.06,54.79,90.51,94.64,124.49l170.64,145.5-104.3-198.47c-10.21-19.43-18.18-40.2-23.55-61.95-5.14-20.84-7.88-42.9-7.88-65.85v-81.2c0-102.61,33.31-187.8,85.94-256.59,50.76-66.34,119.58-118.08,194.25-155.94v1187.64c-177.64,14.65,39.88-240.33-440.55-310.04,169.82,78.65-38.8,454.15,483.88,387.78,522.67,66.37,314.05-309.14,483.87-387.78-480.43,69.71-262.91,324.69-440.55,310.04V261.34c70.96,35.98,136.64,84.49,186.55,146.17v-124.18ZM86.65,88.37v480.99c15.78-78.07,48.94-146.13,93.66-204.55,57.84-75.6,134.98-134.48,218.41-177.62-42.89-25.37-88.62-45.85-134.67-61.56-60.75-20.71-121.8-32.99-177.41-37.27Z"/><path class="cls-1" d="M716.49,755.07V183.89c-125.34,9.55-277.75,59.63-391.55,154.75-94.6,79.07-161.86,189.96-161.86,335.21v81.21c0,76.04,31.15,145.22,81.32,195.39,50.17,50.17,119.34,81.32,195.39,81.32h0c76.05,0,145.22-31.14,195.39-81.32,50.17-50.17,81.32-119.35,81.32-195.39M803.14,138.86v616.2c0,99.97-40.87,190.82-106.7,256.66-65.83,65.83-156.69,106.71-256.65,106.71h0c-99.96,0-190.81-40.88-256.65-106.71-65.83-65.83-106.7-156.7-106.7-256.66v-81.21c0-174.55,80.2-307.27,193-401.55,143.82-120.2,341.77-176.77,490.39-176.77h43.33v43.33Z"/></svg>